<svg width="28.502930" height="36.745728" viewBox="0 0 28.5029 36.7457" fill="none" xmlns="http://www.w3.org/2000/svg" xmlns:xlink="http://www.w3.org/1999/xlink">
	<desc>
			Created with Pixso.
	</desc>
	<defs/>
	<path id="Стрелка 1" d="M2.56 5.74L5.52 8.7C5.82 9 5.82 9.47 5.52 9.76C5.22 10.06 4.76 10.06 4.46 9.76L0.22 5.52C-0.08 5.22 -0.08 4.76 0.22 4.46L4.46 0.22C4.76 -0.08 5.22 -0.08 5.52 0.22C5.82 0.51 5.82 0.98 5.52 1.28L2.56 4.24L10.01 4.24Q17.41 4.24 22.27 7.75Q22.69 8.05 23.09 8.38Q25.11 10.04 26.38 12.15Q28.5 15.68 28.5 20.49Q28.5 23.66 27.35 26.33Q25.82 29.91 22.24 32.62Q19.35 34.8 16.1 35.82Q13.2 36.74 10.01 36.74L0.75 36.74L0.75 35.24L10.01 35.24Q12.95 35.24 15.62 34.4Q18.65 33.45 21.33 31.42Q24.62 28.94 26 25.66Q27 23.28 27 20.49Q27 16.03 25.01 12.8Q23.89 10.98 22.14 9.54Q21.9 9.35 21.66 9.16Q17.12 5.74 10.01 5.74L2.56 5.74Z" fill="#000000" fill-opacity="1.000000" fill-rule="evenodd"/>
</svg>
